<?xml version="1.0" encoding="utf-8"?>
<!-- Generator: Adobe Illustrator 21.0.2, SVG Export Plug-In . SVG Version: 6.00 Build 0)  -->
<svg version="1.1" id="Capa_1" xmlns="http://www.w3.org/2000/svg" xmlns:xlink="http://www.w3.org/1999/xlink" x="0px" y="0px"
	 viewBox="0 0 512 512" style="enable-background:new 0 0 512 512;" xml:space="preserve">
<style type="text/css">
	.st0{opacity:0.6;}
	.st1{fill:#4F4F4F;}
</style>
<g class="st0">
	<path class="st1" d="M256,32c77.3,0,140,62.7,140,140c0,76.1-45.9,85-54.5,168c0,7.8-6.3,14-14,14h-143c-7.8,0-14-6.3-14-14h0
		c-8.6-83-54.5-91.9-54.5-168C116,94.7,178.7,32,256,32 M326,368c7.8,0,14,6.3,14,14s-6.3,14-14,14H186c-7.8,0-14-6.3-14-14
		s6.3-14,14-14H326 M326,410c7.8,0,14,6.3,14,14s-6.3,14-14,14H186c-7.8,0-14-6.3-14-14s6.3-14,14-14H326 M312,452
		c0,15.5-12.5,28-28,28h-56c-15.5,0-28-12.5-28-28H312 M256,0C161.2,0,84,77.2,84,172c0,47.6,15.6,75,29.3,99.1
		c11.6,20.4,21.7,38.2,25.3,71.1c0.3,7.3,2.4,14.2,5.8,20.2c-2.8,5.9-4.4,12.6-4.4,19.6c0,7.6,1.8,14.7,5.1,21
		c-3.3,6.3-5.1,13.4-5.1,21c0,19.7,12.5,36.6,29.9,43.1c6.7,25.8,30.2,44.9,58.1,44.9h56c27.9,0,51.4-19.1,58.1-44.9
		c17.5-6.5,29.9-23.4,29.9-43.1c0-7.6-1.8-14.7-5.1-21c3.3-6.3,5.1-13.4,5.1-21c0-7-1.6-13.6-4.4-19.5c3.4-6.1,5.5-13,5.8-20.3
		c3.6-32.9,13.7-50.6,25.3-71.1C412.4,247,428,219.6,428,172C428,77.2,350.8,0,256,0L256,0z"/>
</g>
</svg>
