<?xml version="1.0" encoding="utf-8"?>
<!-- Generator: Adobe Illustrator 21.0.0, SVG Export Plug-In . SVG Version: 6.00 Build 0)  -->
<svg version="1.1" xmlns="http://www.w3.org/2000/svg" xmlns:xlink="http://www.w3.org/1999/xlink" x="0px" y="0px"
	 viewBox="0 0 2000 1000" style="enable-background:new 0 0 2000 1000;" xml:space="preserve">
<style type="text/css">
	.st0{opacity:0.1;fill:#F7FFFF;}
	.st1{opacity:0.19;fill:#F7FFFF;}
	.st2{opacity:0.11;fill:#F7FFFF;}
	.st3{opacity:0.23;fill:#F7FFFF;}
	.st4{opacity:0.35;fill:#F7FFFF;}
	.st5{opacity:0.5;fill:#F7FFFF;}
	.st6{opacity:0.13;fill:#F7FFFF;}
	.st7{opacity:0.8;}
	.st8{opacity:0.6;fill:#FFFFFF;}
	.st9{fill:#E6E6E6;}
	.st10{fill:#FFFFFF;}
</style>
<g id="Layer_7">
	<path class="st0" d="M223.5,152.7c0,0,0-10-10-10c10,0,10-10,10-10s0,10,10,10C223.5,142.7,223.5,152.7,223.5,152.7z"/>
	<path class="st1" d="M491.5,95.6c0,0,0-5-5-5c5,0,5-5,5-5s0,5,5,5C491.5,90.6,491.5,95.6,491.5,95.6z"/>
	<path class="st0" d="M48.2,258c0,0,0-2.5-2.5-2.5c2.5,0,2.5-2.5,2.5-2.5s0,2.5,2.5,2.5C48.2,255.5,48.2,258,48.2,258z"/>
	<path class="st1" d="M789.6,170.2c0,0,0-10-10-10c10,0,10-10,10-10s0,10,10,10C789.6,160.2,789.6,170.2,789.6,170.2z"/>
	<path class="st0" d="M216,371c0,0,0-7.5-7.5-7.5c7.5,0,7.5-7.5,7.5-7.5s0,7.5,7.5,7.5C216,363.5,216,371,216,371z"/>
	<path class="st1" d="M464.2,189.1c0,0,0-7.5-7.5-7.5c7.5,0,7.5-7.5,7.5-7.5s0,7.5,7.5,7.5C464.2,181.6,464.2,189.1,464.2,189.1z"/>
	<path class="st1" d="M380.8,227.7c0,0,0-2.5-2.5-2.5c2.5,0,2.5-2.5,2.5-2.5s0,2.5,2.5,2.5C380.8,225.2,380.8,227.7,380.8,227.7z"/>
	<path class="st1" d="M1729,838.2c0,0,0-7.5-7.5-7.5c7.5,0,7.5-7.5,7.5-7.5s0,7.5,7.5,7.5C1729,830.7,1729,838.2,1729,838.2z"/>
	<path class="st0" d="M316.4,466c0,0,0-5-5-5c5,0,5-5,5-5s0,5,5,5C316.4,461,316.4,466,316.4,466z"/>
	<path class="st1" d="M774.7,297.8c0,0,0-2.5-2.5-2.5c2.5,0,2.5-2.5,2.5-2.5s0,2.5,2.5,2.5C774.7,295.3,774.7,297.8,774.7,297.8z"/>
	<path class="st2" d="M1229.1,452.3c0,0,0-10-10-10c10,0,10-10,10-10s0,10,10,10C1229.1,442.3,1229.1,452.3,1229.1,452.3z"/>
	<path class="st2" d="M1388,157.7c0,0,0-7.5-7.5-7.5c7.5,0,7.5-7.5,7.5-7.5s0,7.5,7.5,7.5C1388,150.2,1388,157.7,1388,157.7z"/>
	<path class="st2" d="M1257.6,712c0,0,0-5-5-5c5,0,5-5,5-5s0,5,5,5C1257.6,707,1257.6,712,1257.6,712z"/>
	<path class="st0" d="M124.1,557.5c0,0,0-5-5-5c5,0,5-5,5-5s0,5,5,5C124.1,552.5,124.1,557.5,124.1,557.5z"/>
	<path class="st0" d="M129.1,328.6c0,0,0-5-5-5c5,0,5-5,5-5s0,5,5,5C129.1,323.6,129.1,328.6,129.1,328.6z"/>
	<path class="st0" d="M54,622.7c0,0,0-2.5-2.5-2.5c2.5,0,2.5-2.5,2.5-2.5s0,2.5,2.5,2.5C54,620.2,54,622.7,54,622.7z"/>
	<path class="st1" d="M837.4,362.5c0,0,0-7.5-7.5-7.5c7.5,0,7.5-7.5,7.5-7.5s0,7.5,7.5,7.5C837.4,355,837.4,362.5,837.4,362.5z"/>
	<path class="st3" d="M1457,666.2c0,0,0-5-5-5c5,0,5-5,5-5s0,5,5,5C1457,661.2,1457,666.2,1457,666.2z"/>
	<path class="st2" d="M1304.1,331.1c0,0,0-7.5-7.5-7.5c7.5,0,7.5-7.5,7.5-7.5s0,7.5,7.5,7.5C1304.1,323.6,1304.1,331.1,1304.1,331.1
		z"/>
	<path class="st1" d="M844.7,540.4c0,0,0-5-5-5c5,0,5-5,5-5s0,5,5,5C844.7,535.4,844.7,540.4,844.7,540.4z"/>
	<path class="st1" d="M738.5,583c0,0,0-5-5-5c5,0,5-5,5-5s0,5,5,5C738.5,578,738.5,583,738.5,583z"/>
	<path class="st1" d="M668.4,455.1c0,0,0-5-5-5c5,0,5-5,5-5s0,5,5,5C668.4,450.1,668.4,455.1,668.4,455.1z"/>
	<path class="st1" d="M603.4,648.2c0,0,0-2.5-2.5-2.5c2.5,0,2.5-2.5,2.5-2.5s0,2.5,2.5,2.5C603.4,645.7,603.4,648.2,603.4,648.2z"/>
	<path class="st1" d="M968.1,768.6c0,0,0-5-5-5c5,0,5-5,5-5s0,5,5,5C968.1,763.6,968.1,768.6,968.1,768.6z"/>
	<path class="st4" d="M1744,572.5c0,0,0-7.5-7.5-7.5c7.5,0,7.5-7.5,7.5-7.5s0,7.5,7.5,7.5C1744,565,1744,572.5,1744,572.5z"/>
	<path class="st2" d="M1136.1,610c0,0,0-7.5-7.5-7.5c7.5,0,7.5-7.5,7.5-7.5s0,7.5,7.5,7.5C1136.1,602.5,1136.1,610,1136.1,610z"/>
	<path class="st1" d="M613.1,800.4c0,0,0-2.5-2.5-2.5c2.5,0,2.5-2.5,2.5-2.5s0,2.5,2.5,2.5C613.1,797.9,613.1,800.4,613.1,800.4z"/>
	<path class="st5" d="M1296.6,199.1c0,0,0-5-5-5c5,0,5-5,5-5s0,5,5,5C1296.6,194.1,1296.6,199.1,1296.6,199.1z"/>
	<path class="st2" d="M1128.6,172.7c0,0,0-2.5-2.5-2.5c2.5,0,2.5-2.5,2.5-2.5s0,2.5,2.5,2.5C1128.6,170.2,1128.6,172.7,1128.6,172.7
		z"/>
	<path class="st1" d="M1043.1,517.6c0,0,0-2.5-2.5-2.5c2.5,0,2.5-2.5,2.5-2.5s0,2.5,2.5,2.5C1043.1,515.1,1043.1,517.6,1043.1,517.6
		z"/>
	<path class="st0" d="M55.2,707c0,0,0-2.5-2.5-2.5c2.5,0,2.5-2.5,2.5-2.5s0,2.5,2.5,2.5C55.2,704.5,55.2,707,55.2,707z"/>
	<path class="st6" d="M324.3,901.7c0,0,0-5-5-5c5,0,5-5,5-5s0,5,5,5C324.3,896.7,324.3,901.7,324.3,901.7z"/>
	<path class="st5" d="M1782,58.1c0,0,0-5-5-5c5,0,5-5,5-5s0,5,5,5C1782,53.1,1782,58.1,1782,58.1z"/>
	<path class="st1" d="M995,336.1c0,0,0-5-5-5c5,0,5-5,5-5s0,5,5,5C995,331.1,995,336.1,995,336.1z"/>
	<path class="st6" d="M778.8,946.4c0,0,0-5-5-5c5,0,5-5,5-5s0,5,5,5C778.8,941.4,778.8,946.4,778.8,946.4z"/>
	<path class="st6" d="M95.5,910.4c0,0,0-2.5-2.5-2.5c2.5,0,2.5-2.5,2.5-2.5s0,2.5,2.5,2.5C95.5,907.9,95.5,910.4,95.5,910.4z"/>
	<path class="st6" d="M1380.5,896.7c0,0,0-5-5-5c5,0,5-5,5-5s0,5,5,5C1380.5,891.7,1380.5,896.7,1380.5,896.7z"/>
	<path class="st1" d="M450.8,650.7c0,0,0-2.5-2.5-2.5c2.5,0,2.5-2.5,2.5-2.5s0,2.5,2.5,2.5C450.8,648.2,450.8,650.7,450.8,650.7z"/>
	<path class="st1" d="M464.2,437.3c0,0,0-5-5-5c5,0,5-5,5-5s0,5,5,5C464.2,432.3,464.2,437.3,464.2,437.3z"/>
	<path class="st5" d="M1815,732.1c0,0,0-2.5-2.5-2.5c2.5,0,2.5-2.5,2.5-2.5s0,2.5,2.5,2.5C1815,729.6,1815,732.1,1815,732.1z"/>
</g>
<g id="Layer_5">
	<g class="st7">
		<path class="st8" d="M1569.3,480.3c-17.9-17.9-26.9-41.4-27-65h-15c0.1,27.4,10.6,54.7,31.4,75.6c21,21,48.7,31.5,76.4,31.4v-15
			C1611.3,507.4,1587.4,498.4,1569.3,480.3z"/>
		<path class="st8" d="M1534,515.6c-27.7-27.7-41.6-64-41.7-100.3h-15c0.1,40.2,15.5,80.4,46.1,111c30.8,30.8,71.3,46.1,111.7,46.1
			v-15C1598.5,557.4,1561.8,543.5,1534,515.6z"/>
		<path class="st9" d="M1588.9,319.7l38.9-38.9l28.3,28.3l-31.8,31.8l38.9,38.9l-7.1,7.1c-30.3-28.2-69.3-38.3-98.4-27.9l63.1,63.1
			l-22.2,22.2c-3.3-0.9-7,0-9.7,2.6c-3.9,3.9-3.9,10.2,0,14.1c3.9,3.9,10.2,3.9,14.1,0c2.6-2.6,3.5-6.3,2.6-9.7l22.2-22.2l63.1,63.1
			c10.5-29.1,0.3-68.1-27.9-98.4l7.1-7.1l38.9,38.9l31.8-31.8l28.3,28.3l-38.9,38.9l84.9,84.9l84.9-84.9l-84.9-84.9l-38.9,38.9
			l-28.3-28.3l67.2-67.2v-42.4l-42.4-42.4h-42.4l-67.2,67.2l-28.3-28.3l38.9-38.9l-84.9-84.9l-84.9,84.9L1588.9,319.7z"/>
		<path class="st10" d="M1588.9,319.7l38.9-38.9l28.3,28.3l-31.8,31.8l38.9,38.9l-7.1,7.1c-30.3-28.2-69.3-38.3-98.4-27.9l63.1,63.1
			l-22.2,22.2c-3.3-0.9-7,0-9.7,2.6c-3.9,3.9-3.9,10.2,0,14.1l205.1-205.1l-21.2-21.2h-42.4l-67.2,67.2l-28.3-28.3l38.9-38.9
			l-84.9-84.9l-84.9,84.9L1588.9,319.7z"/>
	</g>
</g>
</svg>
