<?xml version="1.0" encoding="utf-8"?>
<!-- Generator: Adobe Illustrator 20.0.0, SVG Export Plug-In . SVG Version: 6.00 Build 0)  -->
<svg version="1.1" id="Layer_1" xmlns="http://www.w3.org/2000/svg" xmlns:xlink="http://www.w3.org/1999/xlink" x="0px" y="0px"
	 viewBox="0 0 1000 1000" style="enable-background:new 0 0 1000 1000;" xml:space="preserve">
<style type="text/css">
	.st0{opacity:0.5;fill:#F7FFFF;}
	.st1{fill:#F7FFFF;}
</style>
<path class="st0" d="M72.3,114.4c0,0,0-10-10-10c10,0,10-10,10-10s0,10,10,10C72.3,104.4,72.3,114.4,72.3,114.4z"/>
<path class="st0" d="M500.8,79.6c0,0,0-5-5-5c5,0,5-5,5-5s0,5,5,5C500.8,74.6,500.8,79.6,500.8,79.6z"/>
<path class="st0" d="M57.4,242c0,0,0-2.5-2.5-2.5c2.5,0,2.5-2.5,2.5-2.5s0,2.5,2.5,2.5C57.4,239.5,57.4,242,57.4,242z"/>
<path class="st0" d="M798.8,154.2c0,0,0-10-10-10c10,0,10-10,10-10s0,10,10,10C798.8,144.2,798.8,154.2,798.8,154.2z"/>
<path class="st0" d="M225.3,355c0,0,0-7.5-7.5-7.5c7.5,0,7.5-7.5,7.5-7.5s0,7.5,7.5,7.5C225.3,347.5,225.3,355,225.3,355z"/>
<path class="st0" d="M473.5,173.1c0,0,0-7.5-7.5-7.5c7.5,0,7.5-7.5,7.5-7.5s0,7.5,7.5,7.5C473.5,165.6,473.5,173.1,473.5,173.1z"/>
<path class="st0" d="M390,211.7c0,0,0-2.5-2.5-2.5c2.5,0,2.5-2.5,2.5-2.5s0,2.5,2.5,2.5C390,209.2,390,211.7,390,211.7z"/>
<path class="st0" d="M565.4,488.9c0,0,0-7.5-7.5-7.5c7.5,0,7.5-7.5,7.5-7.5s0,7.5,7.5,7.5C565.4,481.4,565.4,488.9,565.4,488.9z"/>
<path class="st0" d="M325.7,450c0,0,0-5-5-5c5,0,5-5,5-5s0,5,5,5C325.7,445,325.7,450,325.7,450z"/>
<path class="st0" d="M784,281.8c0,0,0-2.5-2.5-2.5c2.5,0,2.5-2.5,2.5-2.5s0,2.5,2.5,2.5C784,279.3,784,281.8,784,281.8z"/>
<path class="st0" d="M182.4,448.5c0,0,0-10-10-10c10,0,10-10,10-10s0,10,10,10C182.4,438.5,182.4,448.5,182.4,448.5z"/>
<path class="st0" d="M189.9,645.3c0,0,0-7.5-7.5-7.5c7.5,0,7.5-7.5,7.5-7.5s0,7.5,7.5,7.5C189.9,637.8,189.9,645.3,189.9,645.3z"/>
<path class="st0" d="M293.3,522.3c0,0,0-5-5-5c5,0,5-5,5-5s0,5,5,5C293.3,517.3,293.3,522.3,293.3,522.3z"/>
<path class="st0" d="M133.4,541.5c0,0,0-5-5-5c5,0,5-5,5-5s0,5,5,5C133.4,536.5,133.4,541.5,133.4,541.5z"/>
<path class="st0" d="M63.3,413.5c0,0,0-5-5-5c5,0,5-5,5-5s0,5,5,5C63.3,408.5,63.3,413.5,63.3,413.5z"/>
<path class="st0" d="M63.3,606.7c0,0,0-2.5-2.5-2.5c2.5,0,2.5-2.5,2.5-2.5s0,2.5,2.5,2.5C63.3,604.2,63.3,606.7,63.3,606.7z"/>
<path class="st0" d="M846.7,346.5c0,0,0-7.5-7.5-7.5c7.5,0,7.5-7.5,7.5-7.5s0,7.5,7.5,7.5C846.7,339,846.7,346.5,846.7,346.5z"/>
<path class="st0" d="M940.1,475.5c0,0,0-5-5-5c5,0,5-5,5-5s0,5,5,5C940.1,470.5,940.1,475.5,940.1,475.5z"/>
<path class="st0" d="M868.3,670.8c0,0,0-7.5-7.5-7.5c7.5,0,7.5-7.5,7.5-7.5s0,7.5,7.5,7.5C868.3,663.3,868.3,670.8,868.3,670.8z"/>
<path class="st0" d="M854,524.4c0,0,0-5-5-5c5,0,5-5,5-5s0,5,5,5C854,519.4,854,524.4,854,524.4z"/>
<path class="st0" d="M747.8,567c0,0,0-5-5-5c5,0,5-5,5-5s0,5,5,5C747.8,562,747.8,567,747.8,567z"/>
<path class="st0" d="M677.6,439.1c0,0,0-5-5-5c5,0,5-5,5-5s0,5,5,5C677.6,434.1,677.6,439.1,677.6,439.1z"/>
<path class="st0" d="M612.6,632.2c0,0,0-2.5-2.5-2.5c2.5,0,2.5-2.5,2.5-2.5s0,2.5,2.5,2.5C612.6,629.7,612.6,632.2,612.6,632.2z"/>
<path class="st0" d="M837.3,421c0,0,0-5-5-5c5,0,5-5,5-5s0,5,5,5C837.3,416,837.3,421,837.3,421z"/>
<path class="st0" d="M238.6,819.9c0,0,0-7.5-7.5-7.5c7.5,0,7.5-7.5,7.5-7.5s0,7.5,7.5,7.5C238.6,812.4,238.6,819.9,238.6,819.9z"/>
<path class="st0" d="M705.8,745.8c0,0,0-7.5-7.5-7.5c7.5,0,7.5-7.5,7.5-7.5s0,7.5,7.5,7.5C705.8,738.3,705.8,745.8,705.8,745.8z"/>
<path class="st0" d="M622.4,784.4c0,0,0-2.5-2.5-2.5c2.5,0,2.5-2.5,2.5-2.5s0,2.5,2.5,2.5C622.4,781.9,622.4,784.4,622.4,784.4z"/>
<path class="st0" d="M331.5,814.7c0,0,0-5-5-5c5,0,5-5,5-5s0,5,5,5C331.5,809.7,331.5,814.7,331.5,814.7z"/>
<path class="st0" d="M498.3,438.5c0,0,0-2.5-2.5-2.5c2.5,0,2.5-2.5,2.5-2.5s0,2.5,2.5,2.5C498.3,436,498.3,438.5,498.3,438.5z"/>
<path class="st0" d="M248.8,304.4c0,0,0-2.5-2.5-2.5c2.5,0,2.5-2.5,2.5-2.5s0,2.5,2.5,2.5C248.8,301.9,248.8,304.4,248.8,304.4z"/>
<path class="st0" d="M64.5,691c0,0,0-2.5-2.5-2.5c2.5,0,2.5-2.5,2.5-2.5s0,2.5,2.5,2.5C64.5,688.5,64.5,691,64.5,691z"/>
<path class="st1" d="M333.6,885.7c0,0,0-5-5-5c5,0,5-5,5-5s0,5,5,5C333.6,880.7,333.6,885.7,333.6,885.7z"/>
<path class="st0" d="M173.7,840.9c0,0,0-5-5-5c5,0,5-5,5-5s0,5,5,5C173.7,835.9,173.7,840.9,173.7,840.9z"/>
<path class="st1" d="M894.3,887.8c0,0,0-5-5-5c5,0,5-5,5-5s0,5,5,5C894.3,882.8,894.3,887.8,894.3,887.8z"/>
<path class="st1" d="M788,930.4c0,0,0-5-5-5c5,0,5-5,5-5s0,5,5,5C788,925.4,788,930.4,788,930.4z"/>
<path class="st1" d="M104.8,894.4c0,0,0-2.5-2.5-2.5c2.5,0,2.5-2.5,2.5-2.5s0,2.5,2.5,2.5C104.8,891.9,104.8,894.4,104.8,894.4z"/>
<path class="st0" d="M529,645.2c0,0,0-5-5-5c5,0,5-5,5-5s0,5,5,5C529,640.2,529,645.2,529,645.2z"/>
<path class="st0" d="M460.1,634.7c0,0,0-2.5-2.5-2.5c2.5,0,2.5-2.5,2.5-2.5s0,2.5,2.5,2.5C460.1,632.2,460.1,634.7,460.1,634.7z"/>
<path class="st0" d="M322.5,687.5c0,0,0-5-5-5c5,0,5-5,5-5s0,5,5,5C322.5,682.5,322.5,687.5,322.5,687.5z"/>
<path class="st0" d="M262.6,599c0,0,0-2.5-2.5-2.5c2.5,0,2.5-2.5,2.5-2.5s0,2.5,2.5,2.5C262.6,596.5,262.6,599,262.6,599z"/>
</svg>
