<?xml version="1.0" encoding="utf-8"?>
<!-- Generator: Adobe Illustrator 21.0.0, SVG Export Plug-In . SVG Version: 6.00 Build 0)  -->
<svg version="1.1" id="Layer_1" xmlns="http://www.w3.org/2000/svg" xmlns:xlink="http://www.w3.org/1999/xlink" x="0px" y="0px"
	 viewBox="0 0 600 400" style="enable-background:new 0 0 600 400;" xml:space="preserve">
<style type="text/css">
	.st0{opacity:0.2;}
	.st1{fill:#D5DBD9;}
	.st2{fill:#FEFEFC;}
	.st3{fill:#939393;}
	.st4{fill:#525252;}
	.st5{fill:#9C9C9C;}
</style>
<g class="st0">
	<polygon points="484.8,197.3 464.1,185.8 339.6,185.8 318.8,208.9 401.8,208.9 464.1,208.9 	"/>
	<polygon points="567.3,243.7 546.5,243.7 536.2,249.6 525.8,243.7 526.3,243.7 547.1,232.1 526.3,220.5 422.6,220.5 401.8,208.9 
		401.8,216.3 318.5,232.2 291,216.5 256,232.1 256,232.1 131.5,232.1 110.7,255.3 193.7,255.3 224.7,255.3 214.5,266.8 193.7,255.3 
		193.7,278.4 173,290 318.2,290 339,278.4 318.2,266.8 214.5,266.8 214.5,266.8 318.2,255.3 359.8,266.8 380.5,255.3 349.4,249.5 
		381.5,243.5 381.1,243.7 453.1,243.7 422,243.7 422,266.8 525.8,266.8 536.2,261.1 546.5,266.8 567.3,266.8 588,255.3 	"/>
</g>
<g>
	<polygon class="st1" points="90,127.9 110.7,116.3 131.5,127.9 110.7,139.5 	"/>
	<polygon class="st2" points="110.7,255.3 90,243.7 90,127.9 110.7,139.5 	"/>
	<polygon class="st3" points="131.5,243.7 110.7,255.3 110.7,139.5 131.5,127.7 	"/>
	<polygon class="st1" points="152.2,162.7 173,151.1 193.7,162.6 173,174.2 	"/>
	<polygon class="st3" points="193.7,278.4 173,290 173,174.2 193.7,162.6 	"/>
	<polygon class="st2" points="110.7,232.1 110.7,255.3 152.2,278.4 152.2,255.3 	"/>
	<polygon class="st1" points="173,243.7 152.2,255.3 110.7,232.1 131.5,220.5 	"/>
	<polygon class="st2" points="173,290 152.2,278.4 152.2,162.7 173,174.2 	"/>
</g>
<g>
	<polygon class="st1" points="193.7,139.5 214.5,127.9 235.2,139.5 214.5,151.1 	"/>
	<polygon class="st4" points="276.7,232.1 256.1,220.6 224.9,180 245.6,191.6 	"/>
	<polygon class="st2" points="224.9,180 245.6,191.6 214.5,266.8 193.7,255.3 	"/>
	<polygon class="st2" points="256,104.7 276.7,116.3 245.6,191.6 224.9,180 	"/>
	<polygon class="st3" points="235.2,255.3 214.5,266.8 276.7,116.3 297.5,104.7 	"/>
	<polygon class="st3" points="297.5,220.5 276.7,232.1 214.5,151.1 235.2,139.5 	"/>
	<polygon class="st1" points="256,104.7 276.7,93.2 297.5,104.7 276.7,116.3 	"/>
	<polygon class="st4" points="245.6,191.4 224.9,180 193.7,139.5 214.5,151.1 	"/>
</g>
<g>
	<polygon class="st1" points="298,81.6 318.8,70 339.6,81.6 318.8,93.2 	"/>
	<polygon class="st2" points="318.8,208.9 298,197.4 298,81.6 318.8,93.2 	"/>
	<polygon class="st3" points="339.6,197.4 318.8,208.9 318.8,93.2 339.6,81.4 	"/>
	<polygon class="st1" points="360.3,116.4 381.1,104.7 401.8,116.3 381.1,127.9 	"/>
	<polygon class="st3" points="401.8,232.1 381.1,243.7 381.1,127.9 401.8,116.3 	"/>
	<polygon class="st2" points="318.8,185.8 318.8,208.9 360.3,232.1 360.3,208.9 	"/>
	<polygon class="st1" points="381.1,197.3 360.3,208.9 318.8,185.8 339.6,174.2 	"/>
	<polygon class="st2" points="381.1,243.7 360.3,232.1 360.3,116.4 381.1,127.9 	"/>
</g>
<g>
	<polygon class="st5" points="401.3,174.2 421.9,162.6 442.8,174.2 422,185.8 	"/>
	<polygon class="st3" points="442.8,162.6 422,174.2 422,151.1 442.8,139.5 	"/>
	<polygon class="st2" points="422,174.2 401.3,162.6 401.3,139.5 422,151.1 	"/>
	<polygon class="st3" points="442.8,255.3 422,266.8 422,185.8 442.8,174.2 	"/>
	<polygon class="st2" points="422,266.8 401.3,255.3 401.3,174.2 422,185.8 	"/>
	<polygon class="st1" points="401.3,139.5 422.3,127.9 442.8,139.5 422,151.1 	"/>
</g>
</svg>
