<?xml version="1.0" encoding="utf-8"?>
<!-- Generator: Adobe Illustrator 20.0.0, SVG Export Plug-In . SVG Version: 6.00 Build 0)  -->
<svg version="1.1" id="Layer_1" xmlns="http://www.w3.org/2000/svg" xmlns:xlink="http://www.w3.org/1999/xlink" x="0px" y="0px"
	 viewBox="0 0 600 600" style="enable-background:new 0 0 600 600;" xml:space="preserve">
<style type="text/css">
	.st0{opacity:0.2;}
	.st1{fill:#D5DBD9;}
	.st2{fill:#FEFEFC;}
	.st3{fill:#939393;}
	.st4{fill:#525252;}
	.st5{fill:#9C9C9C;}
</style>
<g class="st0">
	<polygon points="445.8,317.3 425.1,305.8 300.6,305.8 279.8,328.9 362.8,328.9 425.1,328.9 	"/>
	<polygon points="528.3,363.7 507.5,363.7 497.2,369.6 486.8,363.7 487.3,363.7 508.1,352.1 487.3,340.5 383.6,340.5 362.8,328.9 
		362.8,336.3 279.5,352.2 252,336.5 217,352.1 217,352.1 92.5,352.1 71.7,375.3 154.7,375.3 185.7,375.3 175.5,386.8 154.7,375.3 
		154.7,398.4 134,410 279.2,410 300,398.4 279.2,386.8 175.5,386.8 175.5,386.8 279.2,375.3 320.8,386.8 341.5,375.3 310.4,369.5 
		342.5,363.5 342.1,363.7 414.1,363.7 383,363.7 383,386.8 486.8,386.8 497.2,381.1 507.5,386.8 528.3,386.8 549,375.3 	"/>
</g>
<g>
	<polygon class="st1" points="51,247.9 71.7,236.3 92.5,247.9 71.7,259.5 	"/>
	<polygon class="st2" points="71.7,375.3 51,363.7 51,247.9 71.7,259.5 	"/>
	<polygon class="st3" points="92.5,363.7 71.7,375.3 71.7,259.5 92.5,247.7 	"/>
	<polygon class="st1" points="113.2,282.7 134,271.1 154.7,282.6 134,294.2 	"/>
	<polygon class="st3" points="154.7,398.4 134,410 134,294.2 154.7,282.6 	"/>
	<polygon class="st2" points="71.7,352.1 71.7,375.3 113.2,398.4 113.2,375.3 	"/>
	<polygon class="st1" points="134,363.7 113.2,375.3 71.7,352.1 92.5,340.5 	"/>
	<polygon class="st2" points="134,410 113.2,398.4 113.2,282.7 134,294.2 	"/>
</g>
<g>
	<polygon class="st1" points="154.7,259.5 175.5,247.9 196.2,259.5 175.5,271.1 	"/>
	<polygon class="st4" points="237.7,352.1 217.1,340.6 185.9,300 206.6,311.6 	"/>
	<polygon class="st2" points="185.9,300 206.6,311.6 175.5,386.8 154.7,375.3 	"/>
	<polygon class="st2" points="217,224.7 237.7,236.3 206.6,311.6 185.9,300 	"/>
	<polygon class="st3" points="196.2,375.3 175.5,386.8 237.7,236.3 258.5,224.7 	"/>
	<polygon class="st3" points="258.5,340.5 237.7,352.1 175.5,271.1 196.2,259.5 	"/>
	<polygon class="st1" points="217,224.7 237.7,213.2 258.5,224.7 237.7,236.3 	"/>
	<polygon class="st4" points="206.6,311.4 185.9,300 154.7,259.5 175.5,271.1 	"/>
</g>
<g>
	<polygon class="st1" points="259,201.6 279.8,190 300.6,201.6 279.8,213.2 	"/>
	<polygon class="st2" points="279.8,328.9 259,317.4 259,201.6 279.8,213.2 	"/>
	<polygon class="st3" points="300.6,317.4 279.8,328.9 279.8,213.2 300.6,201.4 	"/>
	<polygon class="st1" points="321.3,236.4 342.1,224.7 362.8,236.3 342.1,247.9 	"/>
	<polygon class="st3" points="362.8,352.1 342.1,363.7 342.1,247.9 362.8,236.3 	"/>
	<polygon class="st2" points="279.8,305.8 279.8,328.9 321.3,352.1 321.3,328.9 	"/>
	<polygon class="st1" points="342.1,317.3 321.3,328.9 279.8,305.8 300.6,294.2 	"/>
	<polygon class="st2" points="342.1,363.7 321.3,352.1 321.3,236.4 342.1,247.9 	"/>
</g>
<g>
	<polygon class="st5" points="362.3,294.2 382.9,282.6 403.8,294.2 383,305.8 	"/>
	<polygon class="st3" points="403.8,282.6 383,294.2 383,271.1 403.8,259.5 	"/>
	<polygon class="st2" points="383,294.2 362.3,282.6 362.3,259.5 383,271.1 	"/>
	<polygon class="st3" points="403.8,375.3 383,386.8 383,305.8 403.8,294.2 	"/>
	<polygon class="st2" points="383,386.8 362.3,375.3 362.3,294.2 383,305.8 	"/>
	<polygon class="st1" points="362.3,259.5 383.3,247.9 403.8,259.5 383,271.1 	"/>
</g>
</svg>
