<?xml version="1.0" encoding="utf-8"?>
<!-- Generator: Adobe Illustrator 21.0.0, SVG Export Plug-In . SVG Version: 6.00 Build 0)  -->
<svg version="1.1" id="Layer_1" xmlns="http://www.w3.org/2000/svg" xmlns:xlink="http://www.w3.org/1999/xlink" x="0px" y="0px"
	 viewBox="0 0 2000 1000" style="enable-background:new 0 0 2000 1000;" xml:space="preserve">
<style type="text/css">
	.st0{opacity:0.1;enable-background:new    ;}
	.st1{fill:#3D3D3D;}
	.st2{fill:#E6E6E6;}
	.st3{fill:#CCCCCC;}
	.st4{fill:#F2F2F2;}
	.st5{opacity:8.000000e-02;fill:#3D3D3D;enable-background:new    ;}
	.st6{fill:#666666;}
	.st7{fill:#B3B3B3;}
	.st8{fill:#00A99D;}
	.st9{fill:#54A8A0;}
	.st10{fill:#808080;}
	.st11{opacity:0.3;fill:#DCDCDC;}
</style>
<g id="iMac">
	<path class="st0" d="M1537.7,540.3c67.9,0,122.9,2.4,122.9,5.5c0,3-55,5.5-122.9,5.5c-67.9,0-122.9-2.4-122.9-5.5
		C1414.8,542.8,1469.8,540.3,1537.7,540.3z"/>
	<path class="st1" d="M1290.5,443.7V160.9c0-6,4.9-10.9,10.9-10.9h463c6,0,10.9,4.9,10.9,10.9v282.7h-484.8V443.7z"/>
	<path class="st2" d="M1764.5,487.4h-463c-6,0-10.9-4.9-10.9-10.9v-32.8h484.9v32.8C1775.4,482.5,1770.5,487.4,1764.5,487.4z"/>
	<path class="st2" d="M1455.8,544.5v-6l19.1-2.3l13.2-50.4h97.9l13.2,50.4l19.1,2.3v6H1455.8z"/>
	<path class="st3" d="M1537.7,157c1.4,0,2.6,1.1,2.6,2.6c0,1.4-1.1,2.6-2.6,2.6c-1.4,0-2.6-1.1-2.6-2.6
		C1535.2,158.1,1536.3,157,1537.7,157z"/>
	<path class="st4" d="M1760.4,169.1v255.4h-454.9V169.1H1760.4z"/>
	<path class="st5" d="M1486.3,495.3l1.8-9.5h97.9l1.8,9.5H1486.3z"/>
	<g id="Layer_6">
	</g>
	<rect x="1450" y="281" class="st6" width="80" height="12"/>
	<rect x="1450" y="299" class="st7" width="240" height="6"/>
	<rect x="1450" y="311" class="st3" width="200" height="6"/>
	<rect x="1450" y="323" class="st7" width="220" height="6"/>
	<rect x="1364.7" y="281" class="st8" width="65.8" height="48"/>
	<rect x="1450" y="353" class="st6" width="120" height="12"/>
	<rect x="1450" y="371" class="st7" width="240" height="6"/>
	<rect x="1450" y="383" class="st7" width="220" height="6"/>
	<rect x="1450" y="395" class="st3" width="200" height="6"/>
	<rect x="1364.7" y="353" class="st9" width="65.8" height="48"/>
	<rect x="1305.5" y="341" class="st2" width="454.8" height="1"/>
	<rect x="1305.5" y="269" class="st2" width="454.8" height="1"/>
	<rect x="1372.9" y="183.3" class="st7" width="329.3" height="72"/>
	<ellipse transform="matrix(0.7071 -0.7071 0.7071 0.7071 248.115 1172.9978)" class="st3" cx="1540" cy="287" rx="4" ry="4"/>
	<circle class="st3" cx="1552" cy="287" r="4"/>
	<circle class="st3" cx="1580" cy="359" r="4"/>
	<circle class="st3" cx="1592" cy="359" r="4"/>
	<circle class="st3" cx="1564" cy="287" r="4"/>
</g>
<g id="macbook">
	<path class="st0" d="M1221.3,575.7c122.2,0,221.3,2.8,221.3,6.1s-99.1,6.1-221.3,6.1c-122.2,0.1-221.3-2.7-221.3-6.1
		S1099.1,575.7,1221.3,575.7z"/>
	<path class="st1" d="M1221.3,565h-159.8V364.2c0-6,4.9-10.9,10.9-10.9h148.9H1362c6,0,10.9,4.9,10.9,10.9V565H1221.3z"/>
	<path class="st2" d="M1413.9,565c0,9.1-7.2,16.4-16.1,16.4h-361.2c-8.9,0-16.1-7.3-16.1-16.4H1413.9z"/>
	<path class="st3" d="M1222,356.2c1.4,0,2.6,1.1,2.6,2.6c0,1.4-1.1,2.6-2.6,2.6c-1.4,0-2.6-1.1-2.6-2.6
		C1219.4,357.3,1220.5,356.2,1222,356.2z"/>
	<path class="st7" d="M1244.5,565c0,3-2.5,5.5-5.6,5.5h-43.5c-3.1,0-5.6-2.4-5.6-5.5H1244.5z"/>
	<path class="st4" d="M1069.7,554.1V364.2h295V554L1069.7,554.1L1069.7,554.1z"/>
	<rect x="1151.5" y="447" class="st6" width="60.8" height="9.1"/>
	<rect x="1151.5" y="460.7" class="st7" width="182.5" height="4.6"/>
	<rect x="1151.5" y="469.8" class="st3" width="152.1" height="4.6"/>
	<rect x="1151.5" y="478.9" class="st7" width="167.3" height="4.6"/>
	<rect x="1086.6" y="447" class="st8" width="50" height="36.5"/>
	<rect x="1151.5" y="501.8" class="st6" width="91.3" height="9.1"/>
	<rect x="1151.5" y="515.5" class="st7" width="182.5" height="4.6"/>
	<rect x="1151.5" y="524.6" class="st7" width="167.3" height="4.6"/>
	<rect x="1151.5" y="533.7" class="st3" width="152.1" height="4.6"/>
	<rect x="1086.6" y="501.8" class="st9" width="50" height="36.5"/>
	<rect x="1069.7" y="492.6" class="st2" width="295" height="0.8"/>
	<rect x="1069.7" y="437.9" class="st2" width="295" height="0.8"/>
	<rect x="1092.8" y="372.7" class="st7" width="250.5" height="54.8"/>
	<ellipse transform="matrix(0.7071 -0.7071 0.7071 0.7071 37.9646 994.8758)" class="st3" cx="1219.9" cy="451.6" rx="3" ry="3"/>
	<circle class="st3" cx="1229" cy="451.6" r="3"/>
	<circle class="st3" cx="1250.3" cy="506.3" r="3"/>
	<circle class="st3" cx="1259.5" cy="506.3" r="3"/>
	<circle class="st3" cx="1238.2" cy="451.6" r="3"/>
</g>
<g id="iPad">
	<path class="st0" d="M1807.1,554.9c51.3,0,92.9,2.8,92.9,6.1c0,3.4-41.6,6.1-92.9,6.1c-51.3,0-92.9-2.8-92.9-6.1
		S1755.8,554.9,1807.1,554.9z"/>
	<path class="st2" d="M1733.4,320h147.5c7.5,0,13.7,6.1,13.7,13.7v213.1c0,7.5-6.1,13.7-13.7,13.7h-147.5c-7.5,0-13.7-6.1-13.7-13.7
		V333.7C1719.7,326.1,1725.8,320,1733.4,320z"/>
	<path class="st10" d="M1796.5,332.2c0.8,0,1.5,0.7,1.5,1.5s-0.7,1.5-1.5,1.5s-1.5-0.7-1.5-1.5
		C1795,332.8,1795.7,332.2,1796.5,332.2z"/>
	<path class="st10" d="M1804,332.2h15c0.8,0,1.5,0.7,1.5,1.5s-0.7,1.5-1.5,1.5h-15c-0.8,0-1.5-0.7-1.5-1.5
		C1802.5,332.8,1803.2,332.2,1804,332.2z"/>
	<path class="st7" d="M1807.1,541.8c3.4,0,6.2,2.8,6.2,6.2s-2.8,6.2-6.2,6.2s-6.2-2.8-6.2-6.2
		C1800.9,544.6,1803.7,541.8,1807.1,541.8z"/>
	<path class="st4" d="M1733.4,344.6h147.5v191.2h-147.5V344.6z"/>
	<rect x="1800.8" y="429.2" class="st6" width="60.8" height="9.1"/>
	<rect x="1800.8" y="442.9" class="st7" width="68.4" height="4.6"/>
	<rect x="1800.8" y="452" class="st3" width="57" height="4.6"/>
	<rect x="1800.8" y="461.1" class="st7" width="62.7" height="4.6"/>
	<rect x="1736" y="429.2" class="st8" width="50" height="36.5"/>
	<rect x="1800.8" y="483.9" class="st6" width="60.8" height="9.1"/>
	<rect x="1800.8" y="497.6" class="st7" width="74.5" height="4.6"/>
	<rect x="1800.8" y="506.7" class="st7" width="68.3" height="4.6"/>
	<rect x="1800.8" y="515.9" class="st3" width="62.1" height="4.6"/>
	<rect x="1736" y="483.9" class="st9" width="50" height="36.5"/>
	<rect x="1733.4" y="474.8" class="st2" width="147.5" height="0.8"/>
	<rect x="1733.4" y="420" class="st2" width="147.5" height="0.8"/>
	<rect x="1740.2" y="356.9" class="st7" width="133.2" height="54.8"/>
	<ellipse transform="matrix(0.7071 -0.7071 0.7071 0.7071 240.8402 1448.7981)" class="st3" cx="1869.3" cy="433.7" rx="3" ry="3"/>
</g>
<g id="iPhone">
	<path class="st0" d="M1707.8,573.4c26,0,47.1,1.8,47.1,4.1s-21.1,4.1-47.1,4.1s-47.1-1.8-47.1-4.1
		C1660.6,575.2,1681.7,573.4,1707.8,573.4z"/>
	<path class="st2" d="M1682.5,410.9h51.9c7.5,0,13.7,6.1,13.7,13.7v139.3c0,7.5-6.1,13.7-13.7,13.7h-51.9c-7.5,0-13.7-6.1-13.7-13.7
		V424.5C1668.8,417,1675,410.9,1682.5,410.9z"/>
	<path class="st10" d="M1697.9,421.7c0.8,0,1.5,0.7,1.5,1.5s-0.7,1.5-1.5,1.5s-1.5-0.7-1.5-1.5
		C1696.4,422.3,1697,421.7,1697.9,421.7z"/>
	<path class="st10" d="M1704,421.7h15c0.8,0,1.5,0.7,1.5,1.5s-0.7,1.5-1.5,1.5h-15c-0.8,0-1.5-0.7-1.5-1.5
		C1702.5,422.3,1703.2,421.7,1704,421.7z"/>
	<path class="st7" d="M1708.5,558.9c3.4,0,6.2,2.8,6.2,6.2s-2.8,6.2-6.2,6.2s-6.2-2.8-6.2-6.2C1702.2,561.7,1705,558.9,1708.5,558.9
		z"/>
	<path class="st4" d="M1674.3,552.9V434.1h68.3v118.8H1674.3L1674.3,552.9z"/>
	<rect x="1705.5" y="474.1" class="st6" width="28.2" height="4.4"/>
	<rect x="1705.5" y="480.8" class="st7" width="31.7" height="2.2"/>
	<rect x="1705.5" y="485.2" class="st3" width="26.4" height="2.2"/>
	<rect x="1705.5" y="489.6" class="st7" width="29" height="2.2"/>
	<rect x="1675.5" y="474.1" class="st8" width="23.2" height="17.7"/>
	<rect x="1705.5" y="500.7" class="st6" width="28.2" height="4.4"/>
	<rect x="1705.5" y="507.4" class="st7" width="34.5" height="2.2"/>
	<rect x="1705.5" y="511.8" class="st7" width="31.6" height="2.2"/>
	<rect x="1705.5" y="516.2" class="st3" width="28.8" height="2.2"/>
	<rect x="1675.5" y="500.7" class="st9" width="23.2" height="17.7"/>
	<rect x="1674.3" y="496.3" class="st2" width="68.3" height="0.4"/>
	<rect x="1705.5" y="527.1" class="st6" width="28.2" height="4.4"/>
	<rect x="1705.5" y="533.8" class="st7" width="34.5" height="2.2"/>
	<rect x="1705.5" y="538.2" class="st7" width="31.6" height="2.2"/>
	<rect x="1705.5" y="542.6" class="st3" width="28.8" height="2.2"/>
	<rect x="1675.5" y="527.1" class="st9" width="23.2" height="17.7"/>
	<rect x="1674.3" y="522.7" class="st2" width="68.3" height="0.4"/>
	<rect x="1674.3" y="469.7" class="st2" width="68.3" height="0.4"/>
	<rect x="1675.3" y="434" class="st7" width="66.5" height="26.6"/>
</g>
<rect class="st11" width="2000" height="1000"/>
</svg>
